<svg id="svg" version="1.1" xmlns="http://www.w3.org/2000/svg" xmlns:xlink="http://www.w3.org/1999/xlink" width="400" height="400" viewBox="0, 0, 400,400"><g id="svgg"><path id="path0" d="M191.406 27.280 C 170.937 28.250,148.595 33.471,130.762 41.453 C 129.688 41.933,128.237 42.576,127.539 42.881 C 126.240 43.448,116.856 48.171,116.504 48.435 C 116.396 48.515,114.857 49.417,113.083 50.438 C 83.160 67.661,56.638 96.718,43.064 127.148 C 42.561 128.276,41.927 129.683,41.655 130.273 C 39.159 135.692,35.799 145.043,33.620 152.637 C 27.382 174.374,25.572 199.142,28.523 222.363 C 30.273 236.136,33.822 250.087,38.795 262.748 C 39.586 264.764,40.234 266.452,40.234 266.500 C 40.234 267.096,46.644 280.287,48.635 283.789 C 49.032 284.487,49.910 286.025,50.585 287.207 C 61.805 306.843,80.744 327.668,98.987 340.430 C 99.985 341.128,101.391 342.122,102.110 342.638 C 106.562 345.834,114.424 350.503,121.484 354.143 C 156.833 372.372,199.196 377.561,238.965 368.532 C 248.538 366.359,262.153 361.863,269.531 358.438 C 270.229 358.114,271.724 357.437,272.852 356.933 C 298.364 345.550,323.615 324.574,340.799 300.488 C 367.747 262.718,378.296 215.986,370.294 169.824 C 365.530 142.335,353.349 114.957,336.361 93.555 C 335.551 92.534,334.578 91.304,334.199 90.820 C 321.131 74.171,301.116 57.794,280.466 46.857 C 253.715 32.687,222.427 25.810,191.406 27.280 M181.798 155.568 C 203.128 157.950,214.505 174.346,208.110 193.487 C 206.142 199.376,198.553 209.754,192.635 214.648 C 191.646 215.466,176.320 230.425,163.672 242.917 L 160.059 246.486 181.348 246.481 C 193.057 246.479,205.112 246.478,208.138 246.480 L 213.640 246.484 213.607 252.100 L 213.574 257.715 177.783 257.764 L 141.992 257.814 141.992 253.058 L 141.992 248.303 153.470 236.896 C 159.783 230.622,168.330 222.194,172.464 218.168 C 189.080 201.986,191.277 199.643,193.740 195.478 C 198.690 187.105,197.626 176.269,191.368 171.318 C 184.680 166.026,171.144 164.921,161.621 168.890 C 157.347 170.671,155.078 172.205,151.799 175.529 L 149.203 178.160 148.479 177.614 C 148.080 177.314,146.717 176.229,145.449 175.204 C 144.182 174.179,142.820 173.093,142.422 172.791 C 142.024 172.489,141.374 171.926,140.976 171.540 L 140.254 170.838 140.879 169.955 C 146.247 162.377,158.105 156.497,170.215 155.409 C 172.448 155.209,179.441 155.304,181.798 155.568 M120.117 207.129 L 120.117 257.813 113.770 257.813 L 107.422 257.813 107.422 212.690 L 107.422 167.568 100.928 167.605 C 97.356 167.625,92.302 167.627,89.697 167.610 L 84.961 167.578 84.961 162.012 L 84.961 156.445 102.539 156.445 L 120.117 156.445 120.117 207.129 M233.725 156.787 C 233.791 156.975,235.361 160.688,237.215 165.039 C 241.602 175.334,244.846 182.979,248.152 190.820 C 249.625 194.312,252.259 200.508,254.006 204.590 C 255.753 208.672,258.300 214.648,259.667 217.871 C 261.034 221.094,262.615 224.785,263.179 226.074 C 263.744 227.363,265.335 231.120,266.715 234.423 C 268.390 238.432,269.276 240.335,269.380 240.148 C 269.467 239.994,270.198 238.259,271.005 236.292 C 271.812 234.324,272.556 232.539,272.658 232.324 C 273.051 231.499,275.703 225.308,277.344 221.387 C 279.137 217.105,280.077 214.892,280.664 213.574 C 280.856 213.145,281.603 211.387,282.324 209.668 C 283.045 207.949,284.891 203.599,286.426 200.000 C 290.487 190.482,294.599 180.822,296.776 175.684 C 297.823 173.213,299.032 170.400,299.463 169.434 C 300.209 167.763,303.517 159.963,304.496 157.568 L 304.955 156.445 311.450 156.445 C 315.023 156.445,317.992 156.520,318.048 156.610 C 318.104 156.701,317.145 159.140,315.916 162.030 C 314.524 165.306,313.722 167.432,313.788 167.676 C 313.859 167.940,313.836 167.986,313.719 167.818 C 313.599 167.645,313.393 167.942,313.043 168.794 C 312.767 169.468,311.828 171.675,310.957 173.699 C 310.086 175.723,309.432 177.473,309.502 177.587 C 309.573 177.702,309.539 177.738,309.426 177.668 C 309.154 177.500,308.946 178.074,309.090 178.592 C 309.164 178.855,309.144 178.916,309.036 178.762 C 308.923 178.600,308.500 179.383,307.771 181.105 C 305.618 186.187,301.002 197.014,300.007 199.316 C 299.449 200.605,298.175 203.594,297.174 205.957 C 296.174 208.320,295.051 210.957,294.678 211.816 C 293.879 213.658,284.884 234.691,282.482 240.332 C 281.568 242.480,280.663 244.590,280.473 245.020 C 280.282 245.449,279.140 248.130,277.934 250.977 C 276.728 253.823,275.579 256.527,275.381 256.985 L 275.019 257.818 269.106 257.767 L 263.193 257.715 262.189 255.371 C 261.636 254.082,260.683 251.841,260.070 250.391 C 259.458 248.940,258.703 247.183,258.392 246.484 C 257.698 244.926,243.296 211.259,238.674 200.391 C 233.513 188.256,232.341 185.508,228.550 176.651 C 226.617 172.135,224.374 166.862,223.566 164.933 C 222.758 163.004,221.607 160.334,221.009 158.999 C 220.411 157.664,219.922 156.544,219.922 156.509 C 219.922 156.205,233.618 156.481,233.725 156.787 " stroke="none" fill="#042b43" fill-rule="evenodd"></path><path id="path1" d="M172.754 155.394 C 160.959 155.975,151.757 159.530,144.336 166.374 C 142.673 167.907,140.430 170.475,140.430 170.844 C 140.430 171.037,143.001 173.169,147.032 176.318 C 148.166 177.205,149.127 177.930,149.168 177.930 C 149.208 177.930,150.356 176.802,151.720 175.424 C 157.717 169.364,165.139 166.423,174.471 166.410 C 189.817 166.388,198.368 174.114,196.872 186.649 C 195.949 194.373,193.346 198.036,178.717 212.194 C 174.048 216.713,163.918 226.685,156.207 234.354 L 142.188 248.298 142.188 252.958 L 142.188 257.617 177.832 257.617 L 213.477 257.617 213.477 252.171 C 213.477 246.880,213.465 246.722,213.084 246.623 C 212.868 246.566,200.871 246.534,186.424 246.551 C 171.977 246.568,160.156 246.536,160.156 246.480 C 160.156 246.325,173.596 232.991,181.934 224.874 C 186.016 220.900,190.828 216.215,192.628 214.462 C 206.652 200.804,211.220 190.970,209.281 178.609 C 206.892 163.373,192.786 154.408,172.754 155.394 M85.156 162.109 L 85.156 167.578 96.387 167.578 L 107.617 167.578 107.617 212.598 L 107.617 257.617 113.818 257.617 L 120.020 257.617 120.020 207.129 L 120.020 156.641 102.588 156.641 L 85.156 156.641 85.156 162.109 M220.384 157.275 C 220.534 157.625,221.361 159.536,222.221 161.523 C 223.572 164.643,226.052 170.455,233.890 188.867 C 234.782 190.962,237.158 196.543,239.170 201.270 C 241.182 205.996,245.072 215.093,247.813 221.484 C 250.555 227.876,253.263 234.204,253.832 235.547 C 254.402 236.890,256.750 242.383,259.051 247.754 L 263.234 257.520 269.132 257.520 L 275.030 257.520 276.400 254.297 C 277.154 252.524,279.159 247.822,280.856 243.848 C 282.553 239.873,285.722 232.446,287.898 227.344 C 290.075 222.241,292.579 216.396,293.463 214.355 C 294.347 212.314,296.979 206.162,299.313 200.684 C 304.186 189.241,317.045 159.110,317.598 157.837 C 317.802 157.366,317.969 156.905,317.969 156.811 C 317.969 156.717,315.030 156.641,311.439 156.641 L 304.909 156.641 304.772 157.080 C 304.603 157.624,300.993 166.220,299.543 169.531 C 298.587 171.714,296.572 176.435,286.625 199.805 C 285.094 203.403,282.606 209.248,281.097 212.793 C 279.588 216.338,277.785 220.601,277.090 222.266 C 276.395 223.931,275.367 226.348,274.806 227.637 C 272.869 232.084,270.867 236.822,270.184 238.574 C 269.407 240.565,269.212 240.856,269.020 240.316 C 268.787 239.660,263.408 226.866,260.938 221.094 C 253.578 203.891,250.999 197.847,249.895 195.215 C 249.219 193.604,248.124 191.011,247.461 189.453 C 246.798 187.896,245.910 185.786,245.489 184.766 C 245.068 183.745,242.197 177.000,239.110 169.775 L 233.496 156.641 226.804 156.641 L 220.112 156.641 220.384 157.275 " stroke="none" fill="#f9fafa" fill-rule="evenodd"></path><path id="path2" d="M90.102 156.592 C 92.875 156.622,97.358 156.622,100.062 156.592 C 102.767 156.561,100.498 156.536,95.020 156.536 C 89.541 156.536,87.328 156.561,90.102 156.592 M110.400 156.591 C 111.877 156.625,114.294 156.625,115.771 156.591 C 117.249 156.558,116.040 156.531,113.086 156.531 C 110.132 156.531,108.923 156.558,110.400 156.591 M220.461 156.583 C 220.704 156.630,221.056 156.628,221.243 156.580 C 221.429 156.531,221.230 156.492,220.801 156.495 C 220.371 156.497,220.218 156.537,220.461 156.583 M228.667 156.589 C 229.127 156.630,229.830 156.629,230.230 156.587 C 230.630 156.545,230.254 156.512,229.395 156.512 C 228.535 156.513,228.208 156.547,228.667 156.589 M232.278 156.585 C 232.575 156.630,233.014 156.629,233.255 156.583 C 233.495 156.536,233.252 156.500,232.715 156.501 C 232.178 156.503,231.981 156.541,232.278 156.585 M305.908 156.589 C 306.418 156.629,307.253 156.629,307.764 156.589 C 308.274 156.549,307.856 156.516,306.836 156.516 C 305.815 156.516,305.398 156.549,305.908 156.589 M183.878 207.080 L 183.105 207.910 183.936 207.138 C 184.708 206.420,184.855 206.250,184.708 206.250 C 184.676 206.250,184.302 206.624,183.878 207.080 M194.325 212.842 L 193.652 213.574 194.385 212.901 C 195.066 212.275,195.207 212.109,195.058 212.109 C 195.025 212.109,194.696 212.439,194.325 212.842 M170.991 235.596 L 169.629 237.012 171.045 235.650 C 172.360 234.385,172.550 234.180,172.407 234.180 C 172.377 234.180,171.740 234.817,170.991 235.596 M142.072 254.199 C 142.072 256.025,142.101 256.799,142.137 255.918 C 142.173 255.037,142.174 253.543,142.138 252.597 C 142.102 251.652,142.072 252.373,142.072 254.199 " stroke="none" fill="#6a7884" fill-rule="evenodd"></path><path id="path3" d="M172.510 155.413 C 172.805 155.458,173.289 155.458,173.584 155.413 C 173.879 155.369,173.638 155.332,173.047 155.332 C 172.456 155.332,172.214 155.369,172.510 155.413 M85.047 162.012 C 85.047 165.020,85.074 166.223,85.107 164.685 C 85.140 163.148,85.140 160.687,85.107 159.217 C 85.074 157.746,85.047 159.004,85.047 162.012 M120.018 205.469 C 120.018 232.271,120.041 243.235,120.068 229.834 C 120.096 216.433,120.096 194.504,120.068 181.104 C 120.041 167.703,120.018 178.667,120.018 205.469 M107.475 176.172 C 107.475 176.655,107.513 176.853,107.560 176.611 C 107.606 176.370,107.606 175.974,107.560 175.732 C 107.513 175.491,107.475 175.688,107.475 176.172 M209.639 183.594 C 209.639 184.507,209.672 184.880,209.713 184.424 C 209.754 183.967,209.754 183.220,209.713 182.764 C 209.672 182.307,209.639 182.681,209.639 183.594 M107.475 183.789 C 107.475 184.272,107.513 184.470,107.560 184.229 C 107.606 183.987,107.606 183.591,107.560 183.350 C 107.513 183.108,107.475 183.306,107.475 183.789 M196.938 184.570 C 196.938 185.269,196.973 185.554,197.016 185.205 C 197.060 184.856,197.060 184.285,197.016 183.936 C 196.973 183.586,196.938 183.872,196.938 184.570 M107.475 189.648 C 107.475 190.132,107.513 190.330,107.560 190.088 C 107.606 189.846,107.606 189.451,107.560 189.209 C 107.513 188.967,107.475 189.165,107.475 189.648 M187.784 203.174 L 187.012 204.004 187.842 203.232 C 188.298 202.807,188.672 202.434,188.672 202.402 C 188.672 202.254,188.502 202.402,187.784 203.174 M181.921 209.033 L 181.348 209.668 181.982 209.094 C 182.574 208.560,182.707 208.398,182.556 208.398 C 182.522 208.398,182.237 208.684,181.921 209.033 M176.946 213.818 L 175.879 214.941 177.002 213.874 C 177.620 213.287,178.125 212.781,178.125 212.751 C 178.125 212.606,177.938 212.775,176.946 213.818 M188.862 218.115 L 187.598 219.434 188.916 218.170 C 190.141 216.996,190.324 216.797,190.180 216.797 C 190.150 216.797,189.557 217.390,188.862 218.115 M167.571 222.998 L 166.504 224.121 167.627 223.054 C 168.670 222.062,168.839 221.875,168.694 221.875 C 168.664 221.875,168.159 222.380,167.571 222.998 M181.143 225.635 L 180.371 226.465 181.201 225.693 C 181.973 224.975,182.121 224.805,181.973 224.805 C 181.941 224.805,181.568 225.178,181.143 225.635 M173.917 232.666 L 173.145 233.496 173.975 232.724 C 174.747 232.006,174.894 231.836,174.747 231.836 C 174.715 231.836,174.341 232.209,173.917 232.666 M142.051 249.414 C 142.051 250.005,142.087 250.247,142.132 249.951 C 142.177 249.656,142.177 249.172,142.132 248.877 C 142.087 248.582,142.051 248.823,142.051 249.414 M107.471 256.543 C 107.473 256.973,107.513 257.125,107.560 256.882 C 107.607 256.640,107.605 256.288,107.556 256.101 C 107.507 255.915,107.469 256.113,107.471 256.543 M107.595 257.673 C 107.680 257.758,108.620 257.802,109.685 257.770 L 111.621 257.712 109.530 257.616 C 108.381 257.563,107.509 257.589,107.595 257.673 M144.189 257.757 C 144.485 257.802,144.968 257.802,145.264 257.757 C 145.559 257.712,145.317 257.676,144.727 257.676 C 144.136 257.676,143.894 257.712,144.189 257.757 M148.887 257.763 C 149.940 257.798,151.610 257.798,152.598 257.763 C 153.586 257.727,152.725 257.698,150.684 257.699 C 148.643 257.699,147.834 257.728,148.887 257.763 M154.932 257.757 C 155.227 257.802,155.710 257.802,156.006 257.757 C 156.301 257.712,156.060 257.676,155.469 257.676 C 154.878 257.676,154.636 257.712,154.932 257.757 M159.427 257.757 C 159.723 257.802,160.163 257.801,160.403 257.755 C 160.643 257.708,160.400 257.672,159.863 257.673 C 159.326 257.675,159.130 257.712,159.427 257.757 M161.279 257.755 C 161.521 257.802,161.917 257.802,162.158 257.755 C 162.400 257.708,162.202 257.670,161.719 257.670 C 161.235 257.670,161.038 257.708,161.279 257.755 M162.939 257.752 C 163.127 257.801,163.435 257.801,163.623 257.752 C 163.811 257.703,163.657 257.663,163.281 257.663 C 162.905 257.663,162.751 257.703,162.939 257.752 M164.505 257.757 C 164.802 257.802,165.241 257.801,165.481 257.755 C 165.721 257.708,165.479 257.672,164.941 257.673 C 164.404 257.675,164.208 257.712,164.505 257.757 M166.846 257.752 C 167.034 257.801,167.341 257.801,167.529 257.752 C 167.717 257.703,167.563 257.663,167.188 257.663 C 166.812 257.663,166.658 257.703,166.846 257.752 M169.681 257.759 C 170.032 257.802,170.560 257.801,170.853 257.757 C 171.147 257.712,170.859 257.677,170.215 257.678 C 169.570 257.679,169.330 257.715,169.681 257.759 M171.828 257.755 C 172.071 257.802,172.423 257.800,172.610 257.751 C 172.796 257.702,172.598 257.664,172.168 257.666 C 171.738 257.669,171.585 257.709,171.828 257.755 M173.587 257.759 C 173.939 257.802,174.466 257.801,174.759 257.757 C 175.053 257.712,174.766 257.677,174.121 257.678 C 173.477 257.679,173.236 257.715,173.587 257.759 M178.467 257.755 C 178.708 257.802,179.104 257.802,179.346 257.755 C 179.587 257.708,179.390 257.670,178.906 257.670 C 178.423 257.670,178.225 257.708,178.467 257.755 M181.399 257.755 C 181.642 257.802,181.993 257.800,182.180 257.751 C 182.367 257.702,182.168 257.664,181.738 257.666 C 181.309 257.669,181.156 257.709,181.399 257.755 M183.744 257.759 C 184.095 257.802,184.622 257.801,184.916 257.757 C 185.209 257.712,184.922 257.677,184.277 257.678 C 183.633 257.679,183.393 257.715,183.744 257.759 M189.502 257.752 C 189.690 257.801,189.998 257.801,190.186 257.752 C 190.374 257.703,190.220 257.663,189.844 257.663 C 189.468 257.663,189.314 257.703,189.502 257.752 M191.064 257.757 C 191.360 257.802,191.843 257.802,192.139 257.757 C 192.434 257.712,192.192 257.676,191.602 257.676 C 191.011 257.676,190.769 257.712,191.064 257.757 M193.311 257.758 C 193.660 257.802,194.231 257.802,194.580 257.758 C 194.929 257.715,194.644 257.680,193.945 257.680 C 193.247 257.680,192.961 257.715,193.311 257.758 M195.557 257.752 C 195.745 257.801,196.052 257.801,196.240 257.752 C 196.428 257.703,196.274 257.663,195.898 257.663 C 195.522 257.663,195.369 257.703,195.557 257.752 M197.024 257.755 C 197.267 257.802,197.618 257.800,197.805 257.751 C 197.992 257.702,197.793 257.664,197.363 257.666 C 196.934 257.669,196.781 257.709,197.024 257.755 M198.586 257.755 C 198.829 257.802,199.181 257.800,199.368 257.751 C 199.554 257.702,199.355 257.664,198.926 257.666 C 198.496 257.669,198.343 257.709,198.586 257.755 M200.641 257.761 C 201.154 257.801,201.945 257.801,202.398 257.760 C 202.852 257.719,202.432 257.686,201.465 257.687 C 200.498 257.687,200.127 257.721,200.641 257.761 M205.130 257.757 C 205.427 257.802,205.866 257.801,206.106 257.755 C 206.346 257.708,206.104 257.672,205.566 257.673 C 205.029 257.675,204.833 257.712,205.130 257.757 M209.817 257.757 C 210.114 257.802,210.553 257.801,210.794 257.755 C 211.034 257.708,210.791 257.672,210.254 257.673 C 209.717 257.675,209.520 257.712,209.817 257.757 M211.670 257.755 C 211.912 257.802,212.307 257.802,212.549 257.755 C 212.791 257.708,212.593 257.670,212.109 257.670 C 211.626 257.670,211.428 257.708,211.670 257.755 M265.387 257.761 C 265.955 257.801,266.834 257.801,267.341 257.760 C 267.847 257.720,267.383 257.688,266.309 257.689 C 265.234 257.689,264.820 257.722,265.387 257.761 M272.417 257.760 C 272.877 257.802,273.580 257.801,273.980 257.759 C 274.380 257.717,274.004 257.683,273.145 257.684 C 272.285 257.685,271.958 257.719,272.417 257.760 " stroke="none" fill="#848c9b" fill-rule="evenodd"></path><path id="path4" d="M223.000 156.583 C 223.243 156.630,223.595 156.628,223.782 156.580 C 223.968 156.531,223.770 156.492,223.340 156.495 C 222.910 156.497,222.757 156.537,223.000 156.583 M224.563 156.583 C 224.806 156.630,225.157 156.628,225.344 156.580 C 225.531 156.531,225.332 156.492,224.902 156.495 C 224.473 156.497,224.320 156.537,224.563 156.583 M172.900 166.541 C 173.088 166.590,173.396 166.590,173.584 166.541 C 173.772 166.492,173.618 166.452,173.242 166.452 C 172.866 166.452,172.712 166.492,172.900 166.541 M179.382 211.377 L 178.809 212.012 179.443 211.438 C 180.035 210.903,180.168 210.742,180.017 210.742 C 179.983 210.742,179.698 211.028,179.382 211.377 M172.163 218.408 L 170.605 220.020 172.217 218.462 C 173.103 217.605,173.828 216.880,173.828 216.850 C 173.828 216.708,173.610 216.912,172.163 218.408 M185.635 221.338 L 184.863 222.168 185.693 221.396 C 186.465 220.678,186.613 220.508,186.465 220.508 C 186.434 220.508,186.060 220.881,185.635 221.338 M160.931 229.443 L 159.863 230.566 160.986 229.499 C 162.030 228.507,162.199 228.320,162.054 228.320 C 162.023 228.320,161.518 228.826,160.931 229.443 M157.617 232.715 C 156.817 233.521,156.206 234.180,156.260 234.180 C 156.313 234.180,157.012 233.521,157.813 232.715 C 158.613 231.909,159.224 231.250,159.170 231.250 C 159.116 231.250,158.417 231.909,157.617 232.715 M168.448 238.135 L 167.676 238.965 168.506 238.193 C 169.278 237.475,169.426 237.305,169.278 237.305 C 169.246 237.305,168.872 237.678,168.448 238.135 M145.210 245.166 L 143.652 246.777 145.264 245.219 C 146.150 244.363,146.875 243.637,146.875 243.608 C 146.875 243.466,146.657 243.669,145.210 245.166 M213.548 248.340 C 213.548 249.414,213.581 249.829,213.621 249.261 C 213.660 248.693,213.660 247.815,213.620 247.308 C 213.580 246.801,213.547 247.266,213.548 248.340 M213.526 252.832 C 213.528 253.262,213.568 253.415,213.615 253.172 C 213.661 252.929,213.660 252.577,213.611 252.390 C 213.562 252.204,213.524 252.402,213.526 252.832 M213.549 255.664 C 213.549 256.792,213.581 257.253,213.621 256.689 C 213.660 256.125,213.660 255.203,213.621 254.639 C 213.581 254.075,213.549 254.536,213.549 255.664 " stroke="none" fill="#485560" fill-rule="evenodd"></path></g></svg>